<?xml version="1.0" standalone="no"?><!DOCTYPE svg PUBLIC "-//W3C//DTD SVG 1.1//EN" "http://www.w3.org/Graphics/SVG/1.1/DTD/svg11.dtd"><svg t="1673934593005" class="icon" viewBox="0 0 1024 1024" version="1.1" xmlns="http://www.w3.org/2000/svg" p-id="3634" width="32" height="32" xmlns:xlink="http://www.w3.org/1999/xlink"><path d="M984.096 110.72l-25.552-25.552a40 40 0 0 0-47.44-6.832l-98.176 53.552-287.36 339.6a40 40 0 0 0 2.256 54.128l15.824 15.84a40 40 0 0 0 54.128 2.256l339.6-287.36 53.552-98.176a40.032 40.032 0 0 0-6.832-47.456z" fill="#BDBDBD" p-id="3635"></path><path d="M989.744 105.056l-25.568-25.552a48.256 48.256 0 0 0-56.928-8.208l-98.176 53.552a8.048 8.048 0 0 0-2.288 1.856l-287.36 339.6a48.272 48.272 0 0 0 2.704 64.944l15.84 15.84c9.248 9.264 21.6 13.968 33.968 13.968 11.024 0 22.064-3.728 30.992-11.264l339.6-287.36a7.744 7.744 0 0 0 1.84-2.288l53.552-98.176a48.192 48.192 0 0 0-8.176-56.912z m-5.84 49.28L931.056 251.2 592.608 537.584a32.16 32.16 0 0 1-43.296-1.792l-15.84-15.84a32.192 32.192 0 0 1-1.792-43.296L818.064 138.192l96.864-52.832a32.16 32.16 0 0 1 37.952 5.472l25.568 25.552c9.952 9.952 12.208 25.568 5.456 37.952z" fill="#37474F" p-id="3636"></path><path d="M938.832 65.456L913.28 39.904a40 40 0 0 0-47.44-6.832l-98.176 53.552L480.32 426.224a40 40 0 0 0 2.256 54.128l15.824 15.84a40 40 0 0 0 54.128 2.256l339.6-287.36 53.552-98.176a40.064 40.064 0 0 0-6.848-47.456z" fill="#EEEEEE" p-id="3637"></path><path d="M944.496 59.808l-25.568-25.552a48.24 48.24 0 0 0-56.928-8.192L763.84 79.6a8.048 8.048 0 0 0-2.288 1.856l-287.36 339.6a48.288 48.288 0 0 0 2.704 64.944l15.824 15.824a47.984 47.984 0 0 0 33.984 13.968c11.008 0 22.064-3.728 30.976-11.264l339.616-287.344a7.744 7.744 0 0 0 1.84-2.288l53.552-98.176a48.208 48.208 0 0 0-8.192-56.912z m-5.84 49.264l-52.848 96.864L547.344 492.32a32.192 32.192 0 0 1-43.296-1.792l-15.824-15.824a32.208 32.208 0 0 1-1.792-43.312L772.816 92.928l96.864-52.832a32.144 32.144 0 0 1 37.952 5.456l25.568 25.552c9.952 9.984 12.208 25.584 5.456 37.968z" fill="#37474F" p-id="3638"></path><path d="M999.6 24.4a56 56 0 0 0-79.2 0l-11.312 11.312 79.2 79.2 11.312-11.312a56 56 0 0 0 0-79.2z" fill="#EEEEEE" p-id="3639"></path><path d="M1005.248 18.736c-24.16-24.176-66.336-24.176-90.496 0l-11.312 11.328a8 8 0 0 0 0 11.312l79.184 79.2a8 8 0 0 0 11.328 0l11.312-11.312a64.096 64.096 0 0 0-0.016-90.528z m-11.312 79.216l-5.664 5.664-67.872-67.888 5.664-5.664c18.128-18.128 49.744-18.128 67.872 0a48.048 48.048 0 0 1 0 67.888zM569.664 409.072a8 8 0 0 0-11.312 0l-28.288 28.288a8 8 0 0 0 11.328 11.312l28.288-28.288a8 8 0 0 0-0.016-11.312z" fill="#37474F" p-id="3640"></path><path d="M473.504 471.296l-28.272 107.472 107.472-28.272z" fill="#78909C" p-id="3641"></path><path d="M558.352 544.832l-79.184-79.2a8.032 8.032 0 0 0-13.392 3.616l-28.304 107.472a8 8 0 0 0 9.776 9.76l107.488-28.288a7.952 7.952 0 1 0 3.616-13.36z m-101.904 22.72l21.248-80.736 59.504 59.488-80.752 21.248z" fill="#37474F" p-id="3642"></path><path d="M711.104 222.4l135.76-135.776 45.248 45.264-135.76 135.76z" fill="#FF7043" p-id="3643"></path><path d="M897.776 126.224L852.512 80.96a8 8 0 0 0-11.312 0l-135.76 135.76a8 8 0 0 0 0 11.328l45.264 45.264a7.968 7.968 0 0 0 11.328 0l135.76-135.76a8 8 0 0 0-0.016-11.328z m-141.424 130.112l-33.952-33.952 124.448-124.448 33.952 33.952-124.448 124.448z" fill="#37474F" p-id="3644"></path><path d="M665.845733 312.906859a24 24 0 1 0 33.940534-33.941718 24 24 0 1 0-33.940534 33.941718Z" fill="#FF7043" p-id="3645"></path><path d="M705.44 273.312a32.016 32.016 0 0 0-54.624 22.624c0 8.56 3.328 16.592 9.376 22.624 6.24 6.24 14.432 9.36 22.624 9.36 8.192 0 16.384-3.12 22.624-9.36 6.048-6.032 9.376-14.064 9.376-22.624 0-8.56-3.328-16.592-9.376-22.624z m-11.312 33.936a16 16 0 0 1-22.624-22.624 16 16 0 1 1 22.624 22.624z" fill="#37474F" p-id="3646"></path><path d="M321.456 608L216 1016h400z" fill="#26C6DA" p-id="3647"></path><path d="M622.48 1011.328l-294.544-408a8.016 8.016 0 0 0-14.24 2.672l-105.456 408A8.016 8.016 0 0 0 216 1024h400a8.016 8.016 0 0 0 6.48-12.672zM226.336 1008l98.608-381.504L600.352 1008H226.336z" fill="#37474F" p-id="3648"></path><path d="M8 1016h208L321.456 608z" fill="#0097A7" p-id="3649"></path><path d="M324.976 600.816a8.032 8.032 0 0 0-9.856 2.32L1.664 1011.136A8.016 8.016 0 0 0 8 1024h208a8 8 0 0 0 7.744-6l105.456-408a8 8 0 0 0-4.224-9.184zM209.808 1008H24.24l279.664-364L209.808 1008z" fill="#37474F" p-id="3650"></path><path d="M721.456 608L616 1016h400z" fill="#FFCA28" p-id="3651"></path><path d="M1022.48 1011.328l-294.544-408a8.016 8.016 0 0 0-14.24 2.672l-105.456 408A8.016 8.016 0 0 0 616 1024h400a8.016 8.016 0 0 0 6.48-12.672zM626.336 1008l98.608-381.504L1000.352 1008H626.336z" fill="#37474F" p-id="3652"></path><path d="M737.392 674.224a7.968 7.968 0 0 0-9.744 5.744l-78.064 302.032a8.016 8.016 0 0 0 15.488 4l78.064-302.032a8 8 0 0 0-5.744-9.744z" fill="#FFE082" p-id="3653"></path><path d="M337.392 674.224a7.952 7.952 0 0 0-9.744 5.744l-78.064 302.032a8.016 8.016 0 0 0 15.488 4l78.064-302.032a8 8 0 0 0-5.744-9.744z" fill="#80DEEA" p-id="3654"></path><path d="M408 1016h208L721.456 608z" fill="#FFA000" p-id="3655"></path><path d="M724.976 600.816a8.048 8.048 0 0 0-9.856 2.32l-313.456 408A8.016 8.016 0 0 0 408 1024h208a8 8 0 0 0 7.744-6l105.456-408a8 8 0 0 0-4.224-9.184zM609.808 1008H424.24l279.664-364L609.808 1008z" fill="#37474F" p-id="3656"></path><path d="M794.816 730.768H624.112a151.2 151.2 0 0 1-135.952-84.016l-35.776-71.552a8 8 0 1 0-14.32 7.152l35.776 71.552a167.12 167.12 0 0 0 150.272 92.864h170.704a8 8 0 0 0 0-16z" fill="#37474F" p-id="3657"></path></svg>